# xmcd
#
# Track frame offsets: 
#        150
#        12772
#        30886
#        45225
#        65537
#        79550
#        91283
#        104774
#        115721
#        128476
#        140297
#        154414
#        172154
#        191006
#        201194
#        218522
#        239079
#        251959
#        268084
#        290066
#        301797
#
# Disc length: 4372 seconds
#
# Revision: 0
# Processed by: cddbd v1.5.2PL0 Copyright (c) Steve Scherf et al.
# Submitted via: ExactAudioCopyFreeDBPlugin 1.0
#
DISCID=27111215
DTITLE=The Long Ryders - Final Wild Songs
DYEAR=2016
DGENRE=Country
TTITLE0=Join My Gang
TTITLE1=You Don't Know What's Right, You Don't Know What's Wrong
TTITLE2=10,5,60
TTITLE3=And She Rides
TTITLE4=Born To Believe In You
TTITLE5=Final Wild Son
TTITLE6=Ivory Tower
TTITLE7=Run Dusty Run
TTITLE8=(Sweet) Mental Revenge
TTITLE9=Fair Game
TTITLE10=Tell It To The Judge On Sunday
TTITLE11=Wreck Of The 809
TTITLE12=Too Close To The Light
TTITLE13=Never Got To Meet The Mom
TTITLE14=I Had A Dream
TTITLE15=Masters Of War
TTITLE16=Black Girl (Live)
TTITLE17=Wreck Of The 809 (Live)
TTITLE18=Further Along (Live)
TTITLE19=The Rains Came (Live)
TTITLE20=You Can't Judge A Book By The Cover (Live)
EXTD=
EXTT0=
EXTT1=
EXTT2=
EXTT3=
EXTT4=
EXTT5=
EXTT6=
EXTT7=
EXTT8=
EXTT9=
EXTT10=
EXTT11=
EXTT12=
EXTT13=
EXTT14=
EXTT15=
EXTT16=
EXTT17=
EXTT18=
EXTT19=
EXTT20=
PLAYORDER=
